<?xml version="1.0" standalone="no"?>
<!DOCTYPE svg PUBLIC "-//W3C//DTD SVG 20010904//EN"
 "http://www.w3.org/TR/2001/REC-SVG-20010904/DTD/svg10.dtd">
<svg version="1.0" xmlns="http://www.w3.org/2000/svg"
 width="2084.000000pt" height="2084.000000pt" viewBox="0 0 2084.000000 2084.000000"
 preserveAspectRatio="xMidYMid meet">
<g transform="translate(0.000000,2084.000000) scale(0.100000,-0.100000)"
fill="#000000" stroke="none">
<path d="M9970 20830 c-1777 -85 -3428 -582 -4925 -1483 -1209 -727 -2285
-1724 -3111 -2882 -739 -1035 -1292 -2220 -1604 -3440 -475 -1856 -434 -3813
119 -5640 243 -802 593 -1592 1028 -2320 766 -1281 1829 -2409 3068 -3256 969
-663 2082 -1173 3203 -1467 l152 -41 0 3465 0 3464 -1072 2 -1073 3 0 1590 0
1590 1071 3 1072 2 5 928 c5 900 9 1030 43 1392 170 1832 900 3055 2205 3695
587 288 1283 457 2159 525 228 18 824 24 1060 11 571 -32 1204 -106 1630 -191
107 -22 209 -43 225 -48 l30 -8 3 -1449 2 -1448 -62 6 c-293 30 -1331 42
-1583 19 -656 -60 -1086 -223 -1390 -527 -229 -229 -378 -530 -459 -928 -64
-311 -76 -528 -76 -1329 l0 -648 1700 0 c935 0 1700 -4 1700 -8 0 -5 -130
-719 -290 -1587 -159 -868 -290 -1582 -290 -1587 0 -4 -634 -8 -1410 -8
l-1410 0 0 -3580 0 -3580 38 5 c489 70 716 111 1067 192 1039 240 2070 658
3000 1216 927 556 1814 1305 2528 2135 1374 1598 2223 3542 2457 5627 42 373
52 556 57 1032 8 734 -28 1235 -137 1885 -423 2519 -1766 4794 -3776 6402
-1591 1272 -3516 2047 -5539 2230 -419 38 -1038 54 -1415 36z"/>
</g>
</svg>
